<svg width="50" height="17" viewBox="0 0 50 17" fill="none" xmlns="http://www.w3.org/2000/svg">
<g clip-path="url(#clip0_23_16)">
<rect width="50" height="17" fill="#1E3A8A"/>
<path d="M6.77 9.35L5.735 8.108H5.465C4.943 8.108 4.502 8.045 4.124 7.901C3.746 7.757 3.431 7.559 3.197 7.307C2.954 7.055 2.774 6.74 2.666 6.38C2.549 6.02 2.495 5.615 2.495 5.165V4.085C2.495 3.635 2.549 3.23 2.666 2.87C2.774 2.51 2.954 2.195 3.197 1.934C3.431 1.682 3.746 1.484 4.124 1.34C4.502 1.205 4.943 1.133 5.465 1.133H6.365C6.878 1.133 7.319 1.205 7.697 1.34C8.075 1.484 8.381 1.682 8.624 1.934C8.858 2.195 9.038 2.51 9.155 2.87C9.272 3.23 9.335 3.635 9.335 4.085V5.165C9.335 5.975 9.137 6.632 8.75 7.154C8.363 7.676 7.751 7.991 6.923 8.081L7.985 9.35H6.77ZM3.62 5.408C3.62 6.011 3.746 6.461 4.016 6.758C4.277 7.064 4.718 7.208 5.33 7.208H6.5C7.112 7.208 7.553 7.064 7.814 6.758C8.075 6.461 8.21 6.011 8.21 5.408V3.833C8.21 3.23 8.075 2.78 7.814 2.483C7.553 2.186 7.112 2.033 6.5 2.033H5.33C4.718 2.033 4.277 2.186 4.016 2.483C3.746 2.78 3.62 3.23 3.62 3.833V5.408ZM15.3615 2.6V8H12.3195C11.6355 8 11.1405 7.838 10.8345 7.505C10.5195 7.181 10.3665 6.695 10.3665 6.065V2.6H11.3565V6.173C11.3565 6.533 11.4195 6.776 11.5635 6.902C11.6985 7.037 11.9235 7.1 12.2475 7.1H14.3715V2.6H15.3615ZM17.8801 2.132H16.8901V1.25H17.8801V2.132ZM16.8901 8V2.6H17.8801V8H16.8901ZM24.0364 8H20.2564C19.8514 8 19.5544 7.919 19.3564 7.748C19.1584 7.586 19.0684 7.37 19.0684 7.118C19.0684 6.92 19.1134 6.74 19.2214 6.578C19.3204 6.425 19.5004 6.254 19.7614 6.056L22.7224 3.851C22.7584 3.824 22.7944 3.797 22.8124 3.761C22.8304 3.725 22.8484 3.689 22.8484 3.635C22.8484 3.581 22.8214 3.536 22.7854 3.5C22.7494 3.473 22.6864 3.455 22.6144 3.455H19.2484V2.6H22.6054C23.0014 2.6 23.3254 2.672 23.5684 2.807C23.8024 2.942 23.9284 3.176 23.9284 3.509C23.9284 3.698 23.8564 3.878 23.7304 4.058C23.6044 4.238 23.3884 4.436 23.1004 4.652L20.2834 6.776C20.2384 6.812 20.2024 6.848 20.1844 6.875C20.1574 6.911 20.1484 6.947 20.1484 6.983C20.1484 7.046 20.1664 7.091 20.2114 7.109C20.2474 7.136 20.3014 7.145 20.3734 7.145H24.0364V8Z" fill="white"/>
<path d="M7.45 16L8.6 9.7C8.68 9.26 8.82 8.93 9.02 8.71C9.22 8.49 9.51 8.37 9.89 8.37C10.31 8.37 10.62 8.51 10.82 8.78C11.02 9.05 11.17 9.38 11.27 9.78L12.49 14.93C12.51 15.02 12.53 15.09 12.55 15.14C12.57 15.19 12.61 15.21 12.67 15.21C12.73 15.21 12.77 15.19 12.79 15.14C12.81 15.1 12.83 15.03 12.85 14.94L14.09 9.78C14.18 9.38 14.34 9.05 14.56 8.78C14.78 8.51 15.08 8.37 15.48 8.37C15.89 8.37 16.2 8.49 16.4 8.71C16.6 8.93 16.75 9.26 16.83 9.7L17.96 16H16.74L15.7 9.65C15.68 9.55 15.66 9.48 15.63 9.44C15.59 9.4 15.55 9.38 15.5 9.38C15.44 9.38 15.39 9.4 15.35 9.44C15.31 9.48 15.27 9.56 15.25 9.66L14.03 14.8C13.93 15.23 13.78 15.56 13.58 15.79C13.38 16.02 13.08 16.13 12.67 16.13C12.24 16.13 11.93 16.01 11.75 15.76C11.56 15.51 11.42 15.2 11.34 14.84L10.13 9.67C10.1 9.56 10.07 9.48 10.04 9.44C10 9.4 9.96 9.38 9.9 9.38C9.84 9.38 9.8 9.4 9.76 9.44C9.72 9.48 9.69 9.55 9.68 9.65L8.62 16H7.45ZM24.4363 12.17V16H20.7363C20.1563 16 19.7063 15.89 19.3863 15.65C19.0662 15.42 18.9063 15.06 18.9063 14.57C18.9063 14.25 19.0163 13.96 19.2563 13.71C19.4963 13.46 19.8263 13.18 20.2463 12.86L22.7763 10.95H18.9763V10H22.1663C22.9263 10 23.4863 10.2 23.8663 10.59C24.2463 10.99 24.4363 11.51 24.4363 12.17ZM20.6863 15H23.3363V11.73L20.6463 13.77C20.4563 13.91 20.3063 14.03 20.2063 14.13C20.0963 14.23 20.0463 14.36 20.0463 14.53C20.0463 14.7 20.1063 14.82 20.2363 14.89C20.3563 14.97 20.5063 15 20.6863 15ZM28.9424 13.61L27.4724 13.3C26.9124 13.18 26.4724 13 26.1524 12.74C25.8324 12.48 25.6824 12.12 25.6824 11.65C25.6824 11.16 25.8524 10.76 26.1924 10.46C26.5324 10.16 27.1024 10 27.8824 10H32.1024V10.95H27.6824C27.3424 10.95 27.1124 11.02 26.9924 11.14C26.8724 11.27 26.8124 11.42 26.8124 11.59C26.8124 11.78 26.8724 11.93 27.0024 12.04C27.1224 12.15 27.3524 12.24 27.6924 12.3L29.1424 12.6C29.7624 12.73 30.2424 12.92 30.5824 13.16C30.9224 13.4 31.1024 13.77 31.1024 14.27C31.1024 14.79 30.9124 15.21 30.5524 15.53C30.1824 15.85 29.5524 16 28.6724 16H25.8824V15.05H28.9324C29.3524 15.05 29.6324 14.99 29.7824 14.86C29.9224 14.73 30.0024 14.56 30.0024 14.35C30.0024 14.15 29.9224 14 29.7724 13.9C29.6124 13.8 29.3424 13.7 28.9424 13.61ZM31.5543 10.95V10H32.5543V8.83H33.6243V10H35.8543V10.95H33.6243V14.38C33.6243 14.64 33.6743 14.81 33.7843 14.91C33.8843 15.01 34.0643 15.05 34.3043 15.05H35.8543V16H34.3143C33.7543 16 33.3143 15.86 32.9943 15.58C32.6743 15.3 32.5243 14.88 32.5243 14.32V10.95H31.5543ZM42.6313 13.38H37.9113V13.87C37.9113 14.27 38.0313 14.57 38.2813 14.76C38.5313 14.96 38.9113 15.05 39.4313 15.05H42.4413V16H39.5813C39.1613 16 38.7813 15.96 38.4413 15.87C38.0913 15.78 37.7913 15.64 37.5513 15.44C37.3013 15.25 37.1113 15 36.9713 14.7C36.8313 14.4 36.7613 14.04 36.7613 13.62V12.57C36.7613 11.69 36.9913 11.03 37.4513 10.58C37.9113 10.14 38.5913 9.91 39.4713 9.91H40.0213C40.8913 9.91 41.5413 10.11 41.9813 10.5C42.4113 10.9 42.6313 11.49 42.6313 12.27V13.38ZM40.1613 10.86H39.3213C38.8113 10.86 38.4513 10.98 38.2313 11.2C38.0113 11.43 37.9113 11.84 37.9113 12.42V12.47H41.4813V12.12C41.4813 11.68 41.3913 11.36 41.2113 11.16C41.0313 10.96 40.6813 10.86 40.1613 10.86ZM43.9816 11.85C43.9816 11.25 44.1716 10.79 44.5516 10.47C44.9316 10.16 45.4216 10 46.0116 10H47.7516V10.95H45.9616C45.6416 10.95 45.4216 11.01 45.2816 11.13C45.1416 11.25 45.0816 11.46 45.0816 11.76V16H43.9816V11.85Z" fill="white"/>
</g>
<defs>
<clipPath id="clip0_23_16">
<rect width="50" height="17" fill="white"/>
</clipPath>
</defs>
</svg>
