<svg width="28" height="30" viewBox="0 0 28 30" fill="none" xmlns="http://www.w3.org/2000/svg">
<g clip-path="url(#clip0_21_3)">
<rect x="5" y="3" width="18" height="20" fill="black"/>
<mask id="path-2-outside-1_21_3" maskUnits="userSpaceOnUse" x="0" y="-1" width="28" height="32" fill="black">
<rect fill="white" y="-1" width="28" height="32"/>
<path d="M16.96 29.8L13.28 25.384H12.32C10.464 25.384 8.896 25.16 7.552 24.648C6.208 24.136 5.088 23.432 4.256 22.536C3.392 21.64 2.752 20.52 2.368 19.24C1.952 17.96 1.76 16.52 1.76 14.92V11.08C1.76 9.48 1.952 8.04 2.368 6.76C2.752 5.48 3.392 4.36 4.256 3.432C5.088 2.536 6.208 1.832 7.552 1.32C8.896 0.839998 10.464 0.584 12.32 0.584H15.52C17.344 0.584 18.912 0.839998 20.256 1.32C21.6 1.832 22.688 2.536 23.552 3.432C24.384 4.36 25.024 5.48 25.44 6.76C25.856 8.04 26.08 9.48 26.08 11.08V14.92C26.08 17.8 25.376 20.136 24 21.992C22.624 23.848 20.448 24.968 17.504 25.288L21.28 29.8H16.96ZM5.76 15.784C5.76 17.928 6.208 19.528 7.168 20.584C8.096 21.672 9.664 22.184 11.84 22.184H16C18.176 22.184 19.744 21.672 20.672 20.584C21.6 19.528 22.08 17.928 22.08 15.784V10.184C22.08 8.04 21.6 6.44 20.672 5.384C19.744 4.328 18.176 3.784 16 3.784H11.84C9.664 3.784 8.096 4.328 7.168 5.384C6.208 6.44 5.76 8.04 5.76 10.184V15.784Z"/>
</mask>
<path d="M16.96 29.8L13.28 25.384H12.32C10.464 25.384 8.896 25.16 7.552 24.648C6.208 24.136 5.088 23.432 4.256 22.536C3.392 21.64 2.752 20.52 2.368 19.24C1.952 17.96 1.76 16.52 1.76 14.92V11.08C1.76 9.48 1.952 8.04 2.368 6.76C2.752 5.48 3.392 4.36 4.256 3.432C5.088 2.536 6.208 1.832 7.552 1.32C8.896 0.839998 10.464 0.584 12.32 0.584H15.52C17.344 0.584 18.912 0.839998 20.256 1.32C21.6 1.832 22.688 2.536 23.552 3.432C24.384 4.36 25.024 5.48 25.44 6.76C25.856 8.04 26.08 9.48 26.08 11.08V14.92C26.08 17.8 25.376 20.136 24 21.992C22.624 23.848 20.448 24.968 17.504 25.288L21.28 29.8H16.96ZM5.76 15.784C5.76 17.928 6.208 19.528 7.168 20.584C8.096 21.672 9.664 22.184 11.84 22.184H16C18.176 22.184 19.744 21.672 20.672 20.584C21.6 19.528 22.08 17.928 22.08 15.784V10.184C22.08 8.04 21.6 6.44 20.672 5.384C19.744 4.328 18.176 3.784 16 3.784H11.84C9.664 3.784 8.096 4.328 7.168 5.384C6.208 6.44 5.76 8.04 5.76 10.184V15.784Z" fill="white"/>
<path d="M16.96 29.8L16.1918 30.4402L16.4916 30.8H16.96V29.8ZM13.28 25.384L14.0482 24.7438L13.7484 24.384H13.28V25.384ZM7.552 24.648L7.908 23.7135L7.552 24.648ZM4.256 22.536L4.98879 21.8555L4.98238 21.8486L4.97584 21.8419L4.256 22.536ZM2.368 19.24L3.32583 18.9527L3.32255 18.9417L3.31903 18.9309L2.368 19.24ZM2.368 6.76L3.31903 7.06908L3.32255 7.05825L3.32583 7.04735L2.368 6.76ZM4.256 3.432L4.98789 4.11342L4.98879 4.11245L4.256 3.432ZM7.552 1.32L7.21566 0.378258L7.2058 0.381782L7.19601 0.385512L7.552 1.32ZM20.256 1.32L20.612 0.385512L20.6022 0.381782L20.5923 0.378258L20.256 1.32ZM23.552 3.432L24.2966 2.76445L24.2845 2.75093L24.2718 2.73786L23.552 3.432ZM25.44 6.76L24.489 7.06908L24.489 7.06908L25.44 6.76ZM24 21.992L24.8033 22.5876L24.8033 22.5876L24 21.992ZM17.504 25.288L17.3959 24.2939L15.5371 24.4959L16.7371 25.9298L17.504 25.288ZM21.28 29.8V30.8H23.4209L22.0469 29.1582L21.28 29.8ZM7.168 20.584L7.92883 19.9351L7.91857 19.923L7.90794 19.9113L7.168 20.584ZM20.672 20.584L19.9208 19.9239L19.916 19.9294L19.9112 19.9351L20.672 20.584ZM7.168 5.384L7.90794 6.05667L7.91361 6.05044L7.91916 6.04411L7.168 5.384ZM17.7282 29.1598L14.0482 24.7438L12.5118 26.0242L16.1918 30.4402L17.7282 29.1598ZM13.28 24.384H12.32V26.384H13.28V24.384ZM12.32 24.384C10.5391 24.384 9.10169 24.1683 7.908 23.7135L7.19601 25.5825C8.69031 26.1517 10.3889 26.384 12.32 26.384V24.384ZM7.908 23.7135C6.67298 23.243 5.69387 22.6149 4.98879 21.8555L3.52321 23.2165C4.48213 24.2491 5.74303 25.029 7.19601 25.5825L7.908 23.7135ZM4.97584 21.8419C4.23124 21.0697 3.66782 20.0926 3.32583 18.9527L1.41017 19.5273C1.83618 20.9474 2.55276 22.2103 3.53616 23.2301L4.97584 21.8419ZM3.31903 18.9309C2.94297 17.7738 2.76 16.4424 2.76 14.92H0.76C0.76 16.5976 0.961032 18.1462 1.41697 19.5491L3.31903 18.9309ZM2.76 14.92V11.08H0.76V14.92H2.76ZM2.76 11.08C2.76 9.55761 2.94297 8.22621 3.31903 7.06908L1.41697 6.45091C0.961032 7.85379 0.76 9.40239 0.76 11.08H2.76ZM3.32583 7.04735C3.66723 5.90933 4.23192 4.92539 4.98789 4.11342L3.52411 2.75058C2.55208 3.7946 1.83677 5.05067 1.41017 6.47265L3.32583 7.04735ZM4.98879 4.11245C5.69387 3.35314 6.67298 2.72497 7.908 2.25449L7.19601 0.385512C5.74303 0.939027 4.48213 1.71886 3.52321 2.75155L4.98879 4.11245ZM7.88834 2.26174C9.10471 1.82732 10.5557 1.584 12.32 1.584V-0.416C10.3723 -0.416 8.6873 -0.147326 7.21566 0.378258L7.88834 2.26174ZM12.32 1.584H15.52V-0.416H12.32V1.584ZM15.52 1.584C17.2512 1.584 18.7024 1.827 19.9197 2.26174L20.5923 0.378258C19.1216 -0.147006 17.4368 -0.416 15.52 -0.416V1.584ZM19.9 2.25449C21.1233 2.72052 22.0821 3.34828 22.8322 4.12613L24.2718 2.73786C23.2939 1.72372 22.0767 0.943478 20.612 0.385512L19.9 2.25449ZM22.8074 4.09954C23.5412 4.918 24.1136 5.9141 24.489 7.06908L26.391 6.45091C25.9344 5.0459 25.2268 3.802 24.2966 2.76445L22.8074 4.09954ZM24.489 7.06908C24.8692 8.23898 25.08 9.57357 25.08 11.08H27.08C27.08 9.38643 26.8428 7.84102 26.391 6.45091L24.489 7.06908ZM25.08 11.08V14.92H27.08V11.08H25.08ZM25.08 14.92C25.08 17.6315 24.42 19.7463 23.1967 21.3964L24.8033 22.5876C26.332 20.5257 27.08 17.9685 27.08 14.92H25.08ZM23.1967 21.3964C22.0272 22.9738 20.1385 23.9958 17.3959 24.2939L17.6121 26.2821C20.7575 25.9402 23.2208 24.7222 24.8033 22.5876L23.1967 21.3964ZM16.7371 25.9298L20.5131 30.4418L22.0469 29.1582L18.2709 24.6462L16.7371 25.9298ZM21.28 28.8H16.96V30.8H21.28V28.8ZM4.76 15.784C4.76 18.0392 5.22684 19.9353 6.42806 21.2567L7.90794 19.9113C7.18916 19.1207 6.76 17.8168 6.76 15.784H4.76ZM6.40717 21.2329C7.61435 22.6483 9.54434 23.184 11.84 23.184V21.184C9.78366 21.184 8.57766 20.6957 7.92883 19.9351L6.40717 21.2329ZM11.84 23.184H16V21.184H11.84V23.184ZM16 23.184C18.2957 23.184 20.2257 22.6483 21.4328 21.2329L19.9112 19.9351C19.2623 20.6957 18.0563 21.184 16 21.184V23.184ZM21.4232 21.2441C22.574 19.9346 23.08 18.0559 23.08 15.784H21.08C21.08 17.8001 20.626 19.1214 19.9208 19.9239L21.4232 21.2441ZM23.08 15.784V10.184H21.08V15.784H23.08ZM23.08 10.184C23.08 7.91209 22.574 6.03343 21.4232 4.72388L19.9208 6.04411C20.626 6.84657 21.08 8.16791 21.08 10.184H23.08ZM21.4232 4.72388C20.2241 3.35942 18.312 2.784 16 2.784V4.784C18.04 4.784 19.2639 5.29658 19.9208 6.04411L21.4232 4.72388ZM16 2.784H11.84V4.784H16V2.784ZM11.84 2.784C9.52796 2.784 7.61591 3.35942 6.41684 4.72388L7.91916 6.04411C8.57609 5.29658 9.80004 4.784 11.84 4.784V2.784ZM6.42806 4.71133C5.22684 6.03267 4.76 7.92882 4.76 10.184H6.76C6.76 8.15118 7.18916 6.84732 7.90794 6.05667L6.42806 4.71133ZM4.76 10.184V15.784H6.76V10.184H4.76Z" fill="black" mask="url(#path-2-outside-1_21_3)"/>
<path d="M7.54 18L8.92 10.44C9.016 9.912 9.184 9.516 9.424 9.252C9.664 8.988 10.012 8.844 10.468 8.844C10.972 8.844 11.344 9.012 11.584 9.336C11.824 9.66 12.004 10.056 12.124 10.536L13.588 16.716C13.612 16.824 13.636 16.908 13.66 16.968C13.684 17.028 13.732 17.052 13.804 17.052C13.876 17.052 13.924 17.028 13.948 16.968C13.972 16.92 13.996 16.836 14.02 16.728L15.508 10.536C15.616 10.056 15.808 9.66 16.072 9.336C16.336 9.012 16.696 8.844 17.176 8.844C17.668 8.844 18.04 8.988 18.28 9.252C18.52 9.516 18.7 9.912 18.796 10.44L20.152 18H18.688L17.44 10.38C17.416 10.26 17.392 10.176 17.356 10.128C17.308 10.08 17.26 10.056 17.2 10.056C17.128 10.056 17.068 10.08 17.02 10.128C16.972 10.176 16.924 10.272 16.9 10.392L15.436 16.56C15.316 17.076 15.136 17.472 14.896 17.748C14.656 18.024 14.296 18.156 13.804 18.156C13.288 18.156 12.916 18.012 12.7 17.712C12.472 17.412 12.304 17.04 12.208 16.608L10.756 10.404C10.72 10.272 10.684 10.176 10.648 10.128C10.6 10.08 10.552 10.056 10.48 10.056C10.408 10.056 10.36 10.08 10.312 10.128C10.264 10.176 10.228 10.26 10.216 10.38L8.944 18H7.54Z" fill="white"/>
</g>
<defs>
<clipPath id="clip0_21_3">
<rect width="28" height="30" fill="white"/>
</clipPath>
</defs>
</svg>
