<svg width="28" height="30" viewBox="0 0 28 30" fill="none" xmlns="http://www.w3.org/2000/svg">
<g clip-path="url(#clip0_21_3)">
<rect width="28" height="30" fill="white"/>
<path d="M16.96 29.8L13.28 25.384H12.32C10.464 25.384 8.896 25.16 7.552 24.648C6.208 24.136 5.088 23.432 4.256 22.536C3.392 21.64 2.752 20.52 2.368 19.24C1.952 17.96 1.76 16.52 1.76 14.92V11.08C1.76 9.48 1.952 8.04 2.368 6.76C2.752 5.48 3.392 4.36 4.256 3.432C5.088 2.536 6.208 1.832 7.552 1.32C8.896 0.839998 10.464 0.584 12.32 0.584H15.52C17.344 0.584 18.912 0.839998 20.256 1.32C21.6 1.832 22.688 2.536 23.552 3.432C24.384 4.36 25.024 5.48 25.44 6.76C25.856 8.04 26.08 9.48 26.08 11.08V14.92C26.08 17.8 25.376 20.136 24 21.992C22.624 23.848 20.448 24.968 17.504 25.288L21.28 29.8H16.96ZM5.76 15.784C5.76 17.928 6.208 19.528 7.168 20.584C8.096 21.672 9.664 22.184 11.84 22.184H16C18.176 22.184 19.744 21.672 20.672 20.584C21.6 19.528 22.08 17.928 22.08 15.784V10.184C22.08 8.04 21.6 6.44 20.672 5.384C19.744 4.328 18.176 3.784 16 3.784H11.84C9.664 3.784 8.096 4.328 7.168 5.384C6.208 6.44 5.76 8.04 5.76 10.184V15.784Z" fill="#1E3A8A"/>
<path d="M7.54 18L8.92 10.44C9.016 9.912 9.184 9.516 9.424 9.252C9.664 8.988 10.012 8.844 10.468 8.844C10.972 8.844 11.344 9.012 11.584 9.336C11.824 9.66 12.004 10.056 12.124 10.536L13.588 16.716C13.612 16.824 13.636 16.908 13.66 16.968C13.684 17.028 13.732 17.052 13.804 17.052C13.876 17.052 13.924 17.028 13.948 16.968C13.972 16.92 13.996 16.836 14.02 16.728L15.508 10.536C15.616 10.056 15.808 9.66 16.072 9.336C16.336 9.012 16.696 8.844 17.176 8.844C17.668 8.844 18.04 8.988 18.28 9.252C18.52 9.516 18.7 9.912 18.796 10.44L20.152 18H18.688L17.44 10.38C17.416 10.26 17.392 10.176 17.356 10.128C17.308 10.08 17.26 10.056 17.2 10.056C17.128 10.056 17.068 10.08 17.02 10.128C16.972 10.176 16.924 10.272 16.9 10.392L15.436 16.56C15.316 17.076 15.136 17.472 14.896 17.748C14.656 18.024 14.296 18.156 13.804 18.156C13.288 18.156 12.916 18.012 12.7 17.712C12.472 17.412 12.304 17.04 12.208 16.608L10.756 10.404C10.72 10.272 10.684 10.176 10.648 10.128C10.6 10.08 10.552 10.056 10.48 10.056C10.408 10.056 10.36 10.08 10.312 10.128C10.264 10.176 10.228 10.26 10.216 10.38L8.944 18H7.54Z" fill="#1E3A8A"/>
</g>
<defs>
<clipPath id="clip0_21_3">
<rect width="28" height="30" fill="white"/>
</clipPath>
</defs>
</svg>
